# xmcd CD database file
#
# Track frame offsets:
#	150
#	12887
#	23027
#	37312
#	47800
#	57462
#	69925
#	79652
#	88532
#	97217
#	107045
#	119805
#	132787
#	141527
#	154130
#	163027
#	176172
#
# Disc length: 2466 seconds
#
# Revision: 0
# Processed by: cddbd v1.5.1PL2 Copyright (c) Steve Scherf et al.
# Submitted via: CDex 1.51
#
DISCID=f409a011
DTITLE=Les Paul and Mary Ford - How High The Moon
DYEAR=2002
DGENRE=Jazz
TTITLE0=Cryin'
TTITLE1=Dry My Tears
TTITLE2=Tennesee Waltz
TTITLE3=Mockin' Bird Hill
TTITLE4=How High The Moon
TTITLE5=I Wish I'd Never Seen Sunshine
TTITLE6=In The Good Old Summertime
TTITLE7=Three Little Words
TTITLE8=Just One More Chance
TTITLE9=The World Is Waiting For The Sunrise
TTITLE10=The Lonesome Road
TTITLE11=I'm Confessin' (That I Love You)
TTITLE12=I Can't Give You Anything But Love
TTITLE13=The Moon Of Manakoora
TTITLE14=Don't Cha Hear Them Bells
TTITLE15=It's A Lonesome Town
TTITLE16=Silent Night
EXTD=YEAR: 2002
EXTT0=
EXTT1=
EXTT2=
EXTT3=
EXTT4=
EXTT5=
EXTT6=
EXTT7=
EXTT8=
EXTT9=
EXTT10=
EXTT11=
EXTT12=
EXTT13=
EXTT14=
EXTT15=
EXTT16=
PLAYORDER=
